<svg id="Layer_1" data-name="Layer 1" xmlns="http://www.w3.org/2000/svg" viewBox="0 0 44.27 34.63"><defs><style>.cls-1{fill:#DA9616;}</style></defs><title>pull quote</title><path class="cls-1" d="M10,34.63a9.13,9.13,0,0,1-7.26-3.15C.91,29.37,0,26.54,0,23A21,21,0,0,1,4.11,10.71Q8.2,4.88,16.78,0l3.69,4.28A90.67,90.67,0,0,0,13.15,11q-3,3.15-3.27,5.65l.47.36A4,4,0,0,1,13,16.3a5.78,5.78,0,0,1,4.64,2.38,10,10,0,0,1,1.91,6.43A9.38,9.38,0,0,1,16.9,32,9.21,9.21,0,0,1,10,34.63Zm23.8,0a9.13,9.13,0,0,1-7.26-3.15C24.71,29.37,23.8,26.54,23.8,23a21,21,0,0,1,4.11-12.26Q32,4.88,40.58,0l3.69,4.28A90.67,90.67,0,0,0,37,11c-2,2.1-3.12,4-3.27,5.65l.47.36a4,4,0,0,1,2.62-.72,5.78,5.78,0,0,1,4.64,2.38,10,10,0,0,1,1.91,6.43A9.38,9.38,0,0,1,40.7,32,9.21,9.21,0,0,1,33.8,34.63Z"/></svg>